<svg width="222" height="41" viewBox="0 0 222 41" fill="none" xmlns="http://www.w3.org/2000/svg">
<path d="M54.9885 28.1035C54.9885 28.7026 54.951 29.3266 54.8762 29.9756H40.3855C40.4854 31.2737 40.8972 32.2722 41.6211 32.9711C42.37 33.6451 43.2811 33.9821 44.3545 33.9821C45.9521 33.9821 47.0629 33.3081 47.687 31.9601H54.5017C54.1523 33.3331 53.5157 34.5687 52.5921 35.6671C51.6935 36.7654 50.5577 37.6266 49.1847 38.2507C47.8118 38.8747 46.2766 39.1868 44.5792 39.1868C42.5323 39.1868 40.71 38.7499 39.1124 37.8762C37.5148 37.0025 36.2667 35.7544 35.3681 34.1319C34.4694 32.5093 34.0201 30.6122 34.0201 28.4405C34.0201 26.2687 34.4569 24.3716 35.3306 22.749C36.2293 21.1265 37.4774 19.8784 39.075 19.0047C40.6726 18.131 42.5073 17.6942 44.5792 17.6942C46.6011 17.6942 48.3984 18.1185 49.9711 18.9672C51.5437 19.816 52.7668 21.0266 53.6405 22.5993C54.5392 24.1719 54.9885 26.0066 54.9885 28.1035ZM48.4359 26.4185C48.4359 25.3202 48.0614 24.4465 47.3126 23.7975C46.5637 23.1484 45.6276 22.8239 44.5043 22.8239C43.4309 22.8239 42.5198 23.136 41.7709 23.76C41.047 24.3841 40.5977 25.2702 40.4229 26.4185H48.4359ZM87.9842 17.9937L82.3302 38.8872H75.2534L71.9583 25.3326L68.551 38.8872H61.5116L55.8201 17.9937H62.223L65.181 32.9337L68.7007 17.9937H75.478L79.0352 32.8588L81.9557 17.9937H87.9842ZM88.7784 28.403C88.7784 26.2562 89.1778 24.3716 89.9766 22.749C90.8003 21.1265 91.9112 19.8784 93.309 19.0047C94.7069 18.131 96.2671 17.6942 97.9895 17.6942C99.4623 17.6942 100.748 17.9937 101.846 18.5928C102.969 19.1919 103.831 19.9782 104.43 20.9517V17.9937H110.833V38.8872H104.43V35.9292C103.806 36.9027 102.932 37.689 101.809 38.2881C100.71 38.8872 99.4248 39.1868 97.952 39.1868C96.2546 39.1868 94.7069 38.7499 93.309 37.8762C91.9112 36.9776 90.8003 35.717 89.9766 34.0944C89.1778 32.4469 88.7784 30.5498 88.7784 28.403ZM104.43 28.4405C104.43 26.8429 103.98 25.5823 103.082 24.6587C102.208 23.735 101.135 23.2732 99.8617 23.2732C98.5886 23.2732 97.5027 23.735 96.6041 24.6587C95.7304 25.5573 95.2936 26.8054 95.2936 28.403C95.2936 30.0006 95.7304 31.2737 96.6041 32.2223C97.5027 33.1459 98.5886 33.6077 99.8617 33.6077C101.135 33.6077 102.208 33.1459 103.082 32.2223C103.98 31.2986 104.43 30.038 104.43 28.4405ZM127.821 17.769C130.267 17.769 132.215 18.5678 133.662 20.1654C135.135 21.7381 135.872 23.9098 135.872 26.6806V38.8872H129.506V27.5418C129.506 26.1439 129.144 25.0581 128.42 24.2842C127.696 23.5104 126.723 23.1235 125.5 23.1235C124.277 23.1235 123.303 23.5104 122.579 24.2842C121.855 25.0581 121.493 26.1439 121.493 27.5418V38.8872H115.09V17.9937H121.493V20.7645C122.142 19.8409 123.016 19.117 124.114 18.5928C125.213 18.0436 126.448 17.769 127.821 17.769ZM151.591 33.4579V38.8872H148.334C146.012 38.8872 144.203 38.3256 142.904 37.2022C141.606 36.054 140.957 34.1943 140.957 31.6232V23.3107H138.411V17.9937H140.957V12.9014H147.36V17.9937H151.554V23.3107H147.36V31.698C147.36 32.3221 147.51 32.7714 147.81 33.046C148.109 33.3206 148.608 33.4579 149.307 33.4579H151.591ZM153.51 28.403C153.51 26.2562 153.91 24.3716 154.709 22.749C155.532 21.1265 156.643 19.8784 158.041 19.0047C159.439 18.131 160.999 17.6942 162.721 17.6942C164.194 17.6942 165.48 17.9937 166.578 18.5928C167.701 19.1919 168.563 19.9782 169.162 20.9517V17.9937H175.565V38.8872H169.162V35.9292C168.538 36.9027 167.664 37.689 166.541 38.2881C165.442 38.8872 164.157 39.1868 162.684 39.1868C160.987 39.1868 159.439 38.7499 158.041 37.8762C156.643 36.9776 155.532 35.717 154.709 34.0944C153.91 32.4469 153.51 30.5498 153.51 28.403ZM169.162 28.4405C169.162 26.8429 168.712 25.5823 167.814 24.6587C166.94 23.735 165.867 23.2732 164.594 23.2732C163.321 23.2732 162.235 23.735 161.336 24.6587C160.462 25.5573 160.026 26.8054 160.026 28.403C160.026 30.0006 160.462 31.2737 161.336 32.2223C162.235 33.1459 163.321 33.6077 164.594 33.6077C165.867 33.6077 166.94 33.1459 167.814 32.2223C168.712 31.2986 169.162 30.038 169.162 28.4405ZM186.225 21.476C186.974 20.3277 187.91 19.429 189.033 18.78C190.157 18.106 191.405 17.769 192.778 17.769V24.5463H191.018C189.42 24.5463 188.222 24.8958 187.423 25.5947C186.625 26.2687 186.225 27.4669 186.225 29.1893V38.8872H179.822V17.9937H186.225V21.476Z" fill="#AD7335"/>
<path d="M0 0.542236V39.2277H11.2491C20.0703 39.2277 29.1085 35.0196 31.2032 26.4508C32.3788 21.6414 32.3731 16.8947 31.186 12.282C29.1166 4.24099 20.4819 0.542236 12.1789 0.542236H0Z" fill="#AD7335"/>
<g clip-path="url(#clip0_715_245)">
<path d="M-17.6202 36.082C-15.6149 33.6253 -8.94683 21.5255 -7.90076 19.2226C-6.87013 16.893 3.12183 21.5699 6.21085 21.6743C7.30065 21.7112 11.9942 20.959 11.9942 20.959C8.74074 18.3811 13.3063 19.4522 12.6852 19.3003C12.6024 19.28 12.5248 19.2382 12.4525 19.1748C11.9101 18.7908 11.3915 17.6816 11.3915 17.6816L12.4193 17.2476C12.4193 17.2476 9.66398 16.9392 8.81151 15.1314C7.95903 13.3236 9.11621 10.4767 11.69 10.8092C14.2639 11.1418 14.4174 15.2689 14.4174 15.2689C15.8266 14.0828 14.6702 13.0689 14.0512 11.204C13.4528 9.34412 16.3287 11.7611 17.5694 12.4301C18.8101 13.0991 18.7646 12.8367 18.7646 12.8367C26.9443 13.3068 24.2108 26.1862 23.8609 28.0654C23.511 29.9446 22.8198 26.7598 22.8198 26.7598C22.3397 27.5562 21.579 26.0908 21.579 26.0908C21.1572 27.8153 20.8163 26.3383 20.8163 26.3383L20.0106 26.9408C18.6697 26.6814 16.5874 24.0701 15.8963 23.3071C15.2105 22.5225 6.02064 23.2218 10.8708 24.3853C15.7273 25.8298 15.6443 27.0661 15.1267 26.9395C14.6091 26.8129 11.9405 39.7486 11.2761 42.4648C10.6117 45.1809 6.26823 54.0568 5.96908 56.1769C5.68536 58.3236 7.16144 58.479 7.16144 58.479C8.31732 57.1625 8.27949 58.7525 8.27949 58.7525C11.4573 60.8321 9.36433 63.1988 9.36433 63.1988C9.92441 60.6399 7.84828 60.2463 7.84828 60.2463C7.1182 61.3471 6.539 59.8575 6.539 59.8575L-9.20344 69.8519L-10.5285 69.5278L-2.64189 64.5572C-2.71145 63.8548 -3.45503 64.4725 -4.44165 63.7514C-5.44897 63.0252 -8.90821 62.5446 -9.5516 62.7528C-10.195 62.961 -10.4429 61.5524 -11.0697 61.5133C-11.7172 61.4692 -12.1847 60.5095 -12.804 61.1576C-13.4234 61.8058 -14.9853 68.4605 -14.9853 68.4605L-16.9937 67.9692L-16.9134 67.372L-23.2427 49.6484C-23.9705 50.2015 -24.839 47.2931 -24.839 47.2931C-26.9183 45.2081 -19.6463 38.5336 -17.6202 36.082ZM-3.50399 61.3534C-2.13569 62.4877 -0.983922 60.9189 -0.791676 62.0169C-0.59943 63.1148 -0.543752 63.4254 -0.543752 63.4254L6.11629 59.3429C6.11629 59.3429 3.86514 58.678 6.0801 53.2111C8.29506 47.7442 13.4202 28.0475 13.3434 27.8231C13.2821 27.6253 13.5321 27.321 11.9171 26.9259C10.3021 26.5309 9.34404 26.4108 9.01712 27.7473C8.6902 29.0838 7.90972 29.8525 7.188 30.2014C6.44559 30.5453 4.1598 33.1619 3.98681 34.8559C3.8191 36.5284 4.27965 45.2313 2.44656 46.1766C2.44656 46.1766 1.95709 46.7423 2.40461 47.5143C2.86757 48.3129 2.44081 53.646 -2.02759 55.3175C-2.03286 55.3391 -4.8723 60.2191 -3.50399 61.3534ZM-11.517 58.2282C-11.4155 59.9665 -8.76067 59.5193 -8.76067 59.5193C-8.24049 60.2634 -7.4123 60.466 -6.29836 60.4871C-5.20512 60.5032 -3.36129 54.58 -4.16491 53.4696C-4.94782 52.3642 -4.21348 50.2592 -4.21348 50.2592C-5.55725 51.8953 -8.17224 52.7178 -8.75352 52.9412C-9.3348 53.1646 -11.6184 56.4899 -11.517 58.2282ZM-23.1657 47.3597C-22.2562 47.9478 -21.405 47.6076 -21.405 47.6076L-21.8005 49.2244C-20.8933 50.3602 -21.4239 52.0809 -21.4239 52.0809L-16.4521 66.114C-16.4521 66.114 -15.0905 62.7002 -14.5674 61.5488C-14.0444 60.3973 -14.1784 60.2274 -15.3322 59.831C-16.4653 59.4396 -15.233 58.4387 -13.9869 57.8297C-12.7407 57.2206 -11.149 53.3148 -11.149 53.3148C-11.149 53.3148 -14.2187 53.8434 -17.4054 53.8635C-20.5922 53.8837 -21.8012 49.407 -19.4336 45.828C-17.0867 42.244 -12.5752 41.3827 -10.3895 41.5975C-8.20903 41.8338 -8.27448 41.3838 -7.58078 39.086C-6.89235 36.8098 -9.48251 37.8897 -12.568 38.483C-15.6536 39.0762 -14.3246 38.4874 -13.2865 36.845C-12.2277 35.2077 -5.76965 35.9878 -6.09885 34.1938C-6.42804 32.3998 -9.62146 31.5501 -9.75968 28.7062C-9.89789 25.8622 -7.55932 29.1301 -6.28259 31.0874C-5.00586 33.0446 -3.57569 33.0289 -3.57569 33.0289C-1.47987 32.4449 0.910561 33.2581 0.910561 33.2581C2.46114 30.5074 1.9037 26.3272 0.710564 24.2076C-0.482572 22.088 -4.07349 20.8898 -5.43434 20.4427C-6.79519 19.9956 -7.50713 20.484 -10.1701 26.5267C-12.8279 32.5478 -18.4879 39.0911 -21.5786 42.1277C-24.6641 45.1426 -24.0698 46.7502 -23.1657 47.3597Z" fill="#212529"/>
<path d="M22.333 21.6434L23.81 24.4328C23.845 24.5057 23.9435 24.5705 23.9558 23.7569C23.9666 23.0406 22.8875 22.0497 22.333 21.6434Z" fill="#AD7335"/>
</g>
<g clip-path="url(#clip1_715_245)">
<path d="M256.833 81.8542L243.815 77.3111C243.815 77.3111 238.077 70.1524 237.689 69.9735C236.076 69.2188 239.643 68.702 239.773 68.2186C240.244 66.2963 241.887 66.8306 241.887 66.8306C242.794 66.3575 242.524 64.8171 242.524 64.8171C243.502 63.9541 242.788 62.8083 242.788 62.8083C243.689 61.7225 242.694 60.7475 242.694 60.7475C244.229 59.5175 242.255 58.8183 242.255 58.8183C243.447 57.7198 241.77 57.0332 241.77 57.0332C242.943 56.206 241.547 55.9359 241.547 55.9359C242.035 55.2644 240.851 55.1063 240.851 55.1063C241.64 54.2328 240.313 54.2674 240.313 54.2674C240.784 52.9324 239.634 53.2739 239.634 53.2739C239.999 52.1766 238.714 51.6943 238.714 51.6943L241.922 47.0143L240.13 44.2981C242.993 39.5097 238.544 38.4919 238.544 38.4919C238.737 35.6984 234.507 36.8198 234.507 36.8198L229.724 31.0458C229.724 31.0458 229.23 29.93 228.263 30.8438C227.296 31.7577 220.362 33.5471 220.362 33.5471C221.313 29.8605 217.624 30.1916 217.624 30.1916C219.352 30.8666 219.32 31.7816 218.281 33.0854C215.146 37.028 211.972 31.636 211.972 31.636C216.548 29.6884 218.592 17.1842 209.852 16.9012C201.106 16.5929 201.794 23.6175 201.519 24.401C201.519 24.401 200.931 23.8137 200.472 24.0248C200.013 24.2359 199.227 24.0675 199.227 24.0675C197.96 23.6613 198.362 24.9582 198.362 24.9582C197.044 24.5635 197.36 25.7197 197.36 25.7197C196.297 25.5074 196.772 26.6543 196.772 26.6543C195.351 26.63 195.835 27.935 195.835 27.935C194.603 27.9212 195.078 29.0681 195.078 29.0681C194.41 29.3 194.801 29.0243 194.795 31.3481C194.789 33.672 193.425 36.0108 193.178 37.5084C192.957 39.0004 195.092 35.712 195.092 35.712C194.192 37.625 197.255 36.1817 197.255 36.1817L197.183 37.159L197.845 36.9017L199.033 37.7798C201.04 38.3914 201.889 35.0753 204.837 35.1261C207.785 35.177 208.566 36.8583 210.416 36.8656C212.773 36.875 205.492 38.1273 204.712 38.5715C203.926 38.9904 205.736 43.7847 205.736 43.7847L204.742 44.8116L203.454 47.1331L204.646 48.3839L204.192 50.3823L205.75 52.5378C206.764 55.0036 208.869 54.0448 208.869 54.0448L210.166 58.9291C210.166 58.9291 216.355 64.1966 217.665 64.9132C218.976 65.6298 218.667 66.501 218.667 66.501C217.155 68.0725 219.532 69.1341 219.532 69.1341C218.746 70.1402 220.411 70.536 220.411 70.536C220.09 71.9437 221.517 71.9934 221.517 71.9934C221.473 73.4449 222.638 73.2869 222.638 73.2869C223.73 74.2135 223.107 74.9957 223.898 75.7769C224.69 76.5581 224.098 77.36 224.098 77.36C225.129 79.902 224.734 80.6324 224.209 80.0843C223.704 79.505 223.008 79.85 223.008 79.85C221.432 80.9022 223.135 83.9323 223.945 83.855C224.755 83.7778 225.101 82.3643 225.101 82.3643C225.101 82.3643 225.505 82.9666 227.014 82.0898C228.524 81.2129 230.434 81.0456 230.434 81.0456C235.304 80.74 235.897 79.0035 235.897 79.0035C237.397 79.7305 237.752 78.4751 237.752 78.4751L241.021 85.3406L243.559 84.7638L239.716 77.6017L243.793 78.6241L247.706 83.9816L249.052 83.6759L245.226 78.9392L254.687 82.3953L256.845 81.905L256.833 81.8542ZM235.69 42.2637C236.72 41.9765 239.669 46.9658 239.669 46.9658L238.426 49.2504C237.352 48.9873 237.05 46.0126 237.05 46.0126L236.567 46.1222L235.69 42.2637ZM195.311 34.0874C195.311 34.0874 195.262 32.817 198.044 32.3717C198.044 32.3717 197.443 33.6028 195.311 34.0874ZM207.816 25.7997C206.319 26.14 204.823 25.1984 204.483 23.7007C204.142 22.203 205.084 20.7076 206.582 20.3673C208.079 20.027 209.575 20.9686 209.915 22.4663C210.256 23.964 209.314 25.4593 207.816 25.7997ZM215.464 49.8231L214.367 49.4584C214.367 49.4584 215.27 51.2019 214.487 51.5135C213.735 51.8446 212.397 51.4811 212.915 52.9384C213.428 54.3704 213.239 57.5365 214.494 58.2393C215.748 58.942 215.984 58.8081 216.094 59.2905C216.204 59.7728 217.009 60.4974 217.009 60.4974C217.009 60.4974 216.491 61.3893 217.069 61.8186C217.672 62.2421 217.258 63.0036 217.258 63.0036L212.057 58.2057C212.057 58.2057 210.261 53.0075 209.855 51.9252L209.553 50.7125C209.553 50.7125 212.606 47.9365 208.433 47.3098L206.748 39.8974C206.748 39.8974 209.483 39.009 210.519 40.749L210.813 42.0437C210.813 42.0437 210.383 42.3817 211.358 43.1479C212.041 43.6868 215.624 47.7046 215.624 47.7046C215.624 47.7046 215.995 49.222 215.464 49.8231ZM228.76 33.0269L234.336 40.0621C234.336 40.0621 228.941 45.6928 226.708 46.2004C224.474 46.708 222.746 45.0983 219.412 45.6959C219.228 45.7109 216.419 36.8723 228.76 33.0269ZM229.046 47.5643C229.046 47.5643 231.581 46.2675 232.667 44.8194L234.049 48.6699L233.13 49.4394C233.13 49.4394 232.492 47.689 228.773 48.8278L228.372 48.3581L229.946 48.0005L229.046 47.5643ZM235.632 76.6612L229.184 78.1264L229.321 76.7336L227.499 75.9997L227.904 74.4928L235.551 76.3058L235.632 76.6612ZM234.9 75.4392L228.18 73.7094C228.18 73.7094 228.506 72.6744 227.799 72.034C227.799 72.034 228.267 70.5663 227.442 70.4601C227.334 70.4578 227.278 70.444 227.196 70.4359C227.188 70.5178 227.174 70.5743 227.174 70.5743C227.174 70.5743 226.736 70.407 227.196 70.4359C227.248 70.077 227.351 69.1193 227.119 69.0385C226.805 68.9497 226.946 68.277 226.946 68.277C226.946 68.277 227.259 68.9532 228.118 68.9717C228.118 68.9717 228.697 70.2282 229.734 69.859C229.734 69.859 230.666 70.9021 231.859 70.631C233.052 70.3599 235.288 73.8561 235.288 73.8561C235.288 73.8561 234.385 74.7019 234.9 75.4392ZM231.543 55.3794C231.543 55.3794 230.745 54.9202 231.162 53.704C231.58 52.4879 230.057 51.6593 231.09 50.9175C232.122 50.1756 232.706 51.8048 232.706 51.8048C232.706 51.8048 233.942 50.4295 234.736 51.6907C235.524 52.9265 236.792 52.9854 234.849 53.4803C234.849 53.4803 233.987 53.9164 233.878 54.2614C233.801 54.626 233.801 54.626 233.801 54.626C233.801 54.626 232.951 52.7637 231.543 55.3794ZM241.176 76.9764L240.867 76.0856L238.858 75.234C238.858 75.234 239.45 73.8448 237.884 72.9459C236.318 72.047 236.093 71.0569 236.093 71.0569L237.058 70.8377L242.874 77.2845L241.176 76.9764Z" fill="#AD7335"/>
</g>
<defs>
<clipPath id="clip0_715_245">
<path d="M5.14365 14.1046C5.88654 11.0675 8.95083 9.2077 11.9879 9.95059L21.9638 12.3907C25.0009 13.1336 26.8607 16.1979 26.1178 19.235L23.7192 29.0412L8.24418 25.256C5.20708 24.5131 3.34725 21.4488 4.09013 18.4117L5.14365 14.1046Z" fill="white"/>
</clipPath>
<clipPath id="clip1_715_245">
<path d="M189.378 21.103L216.794 14.8732L220.565 31.4702C220.935 33.0991 219.915 34.7196 218.286 35.0897L193.82 40.6494L189.378 21.103Z" fill="white"/>
</clipPath>
</defs>
</svg>
