<svg width="32" height="32" viewBox="0 0 32 32" fill="none" xmlns="http://www.w3.org/2000/svg">
<path d="M9 15C8.44772 15 8 15.4477 8 16C8 16.5523 8.44772 17 9 17L9 15ZM23.7071 16.7071C24.0976 16.3166 24.0976 15.6834 23.7071 15.2929L17.3431 8.92893C16.9526 8.53841 16.3195 8.53841 15.9289 8.92893C15.5384 9.31946 15.5384 9.95262 15.9289 10.3431L21.5858 16L15.9289 21.6569C15.5384 22.0474 15.5384 22.6805 15.9289 23.0711C16.3195 23.4616 16.9526 23.4616 17.3431 23.0711L23.7071 16.7071ZM9 17L23 17L23 15L9 15L9 17Z" fill="#F8F9FA"/>
</svg>
