<svg width="222" height="42" viewBox="0 0 222 42" fill="none" xmlns="http://www.w3.org/2000/svg">
<path d="M54.9885 29.0532C54.9885 29.6523 54.951 30.2763 54.8762 30.9253H40.3855C40.4854 32.2234 40.8972 33.2219 41.6211 33.9208C42.37 34.5948 43.2811 34.9318 44.3545 34.9318C45.9521 34.9318 47.0629 34.2578 47.687 32.9099H54.5017C54.1523 34.2828 53.5157 35.5184 52.5921 36.6168C51.6935 37.7151 50.5577 38.5763 49.1847 39.2004C47.8118 39.8244 46.2766 40.1365 44.5792 40.1365C42.5323 40.1365 40.71 39.6996 39.1124 38.8259C37.5148 37.9523 36.2667 36.7041 35.3681 35.0816C34.4694 33.459 34.0201 31.5619 34.0201 29.3902C34.0201 27.2184 34.4569 25.3213 35.3306 23.6987C36.2293 22.0762 37.4774 20.8281 39.075 19.9544C40.6726 19.0807 42.5073 18.6439 44.5792 18.6439C46.6011 18.6439 48.3984 19.0682 49.9711 19.9169C51.5437 20.7657 52.7668 21.9763 53.6405 23.549C54.5392 25.1216 54.9885 26.9563 54.9885 29.0532ZM48.4359 27.3682C48.4359 26.2699 48.0614 25.3962 47.3126 24.7472C46.5637 24.0981 45.6276 23.7736 44.5043 23.7736C43.4309 23.7736 42.5198 24.0857 41.7709 24.7097C41.047 25.3338 40.5977 26.2199 40.4229 27.3682H48.4359ZM87.9842 18.9434L82.3302 39.8369H75.2534L71.9583 26.2823L68.551 39.8369H61.5116L55.8201 18.9434H62.223L65.181 33.8834L68.7007 18.9434H75.478L79.0352 33.8085L81.9557 18.9434H87.9842ZM88.7784 29.3527C88.7784 27.206 89.1778 25.3213 89.9766 23.6987C90.8003 22.0762 91.9112 20.8281 93.309 19.9544C94.7069 19.0807 96.2671 18.6439 97.9895 18.6439C99.4623 18.6439 100.748 18.9434 101.846 19.5425C102.969 20.1416 103.831 20.9279 104.43 21.9015V18.9434H110.833V39.8369H104.43V36.8789C103.806 37.8524 102.932 38.6387 101.809 39.2378C100.71 39.8369 99.4248 40.1365 97.952 40.1365C96.2546 40.1365 94.7069 39.6996 93.309 38.8259C91.9112 37.9273 90.8003 36.6667 89.9766 35.0441C89.1778 33.3966 88.7784 31.4995 88.7784 29.3527ZM104.43 29.3902C104.43 27.7926 103.98 26.532 103.082 25.6084C102.208 24.6848 101.135 24.223 99.8617 24.223C98.5886 24.223 97.5027 24.6848 96.6041 25.6084C95.7304 26.507 95.2936 27.7551 95.2936 29.3527C95.2936 30.9503 95.7304 32.2234 96.6041 33.172C97.5027 34.0956 98.5886 34.5574 99.8617 34.5574C101.135 34.5574 102.208 34.0956 103.082 33.172C103.98 32.2484 104.43 30.9878 104.43 29.3902ZM127.821 18.7187C130.267 18.7187 132.215 19.5175 133.662 21.1151C135.135 22.6878 135.872 24.8595 135.872 27.6303V39.8369H129.506V28.4915C129.506 27.0936 129.144 26.0078 128.42 25.2339C127.696 24.4601 126.723 24.0732 125.5 24.0732C124.277 24.0732 123.303 24.4601 122.579 25.2339C121.855 26.0078 121.493 27.0936 121.493 28.4915V39.8369H115.09V18.9434H121.493V21.7142C122.142 20.7906 123.016 20.0667 124.114 19.5425C125.213 18.9933 126.448 18.7187 127.821 18.7187ZM151.591 34.4076V39.8369H148.334C146.012 39.8369 144.203 39.2753 142.904 38.152C141.606 37.0037 140.957 35.144 140.957 32.5729V24.2604H138.411V18.9434H140.957V13.8511H147.36V18.9434H151.554V24.2604H147.36V32.6478C147.36 33.2718 147.51 33.7211 147.81 33.9957C148.109 34.2703 148.608 34.4076 149.307 34.4076H151.591ZM153.51 29.3527C153.51 27.206 153.91 25.3213 154.709 23.6987C155.532 22.0762 156.643 20.8281 158.041 19.9544C159.439 19.0807 160.999 18.6439 162.721 18.6439C164.194 18.6439 165.48 18.9434 166.578 19.5425C167.701 20.1416 168.563 20.9279 169.162 21.9015V18.9434H175.565V39.8369H169.162V36.8789C168.538 37.8524 167.664 38.6387 166.541 39.2378C165.442 39.8369 164.157 40.1365 162.684 40.1365C160.987 40.1365 159.439 39.6996 158.041 38.8259C156.643 37.9273 155.532 36.6667 154.709 35.0441C153.91 33.3966 153.51 31.4995 153.51 29.3527ZM169.162 29.3902C169.162 27.7926 168.712 26.532 167.814 25.6084C166.94 24.6848 165.867 24.223 164.594 24.223C163.321 24.223 162.235 24.6848 161.336 25.6084C160.462 26.507 160.026 27.7551 160.026 29.3527C160.026 30.9503 160.462 32.2234 161.336 33.172C162.235 34.0956 163.321 34.5574 164.594 34.5574C165.867 34.5574 166.94 34.0956 167.814 33.172C168.712 32.2484 169.162 30.9878 169.162 29.3902ZM186.225 22.4257C186.974 21.2774 187.91 20.3787 189.033 19.7297C190.157 19.0557 191.405 18.7187 192.778 18.7187V25.496H191.018C189.42 25.496 188.222 25.8455 187.423 26.5445C186.625 27.2184 186.225 28.4166 186.225 30.139V39.8369H179.822V18.9434H186.225V22.4257Z" fill="#8C5E2D"/>
<path d="M0 1.49194V40.1774H11.2491C20.0703 40.1774 29.1085 35.9693 31.2032 27.4005C32.3788 22.5911 32.3731 17.8444 31.186 13.2317C29.1166 5.19069 20.4819 1.49194 12.1789 1.49194H0Z" fill="#8C5E2D"/>
<g clip-path="url(#clip0_462_115)">
<path d="M-17.6202 37.0317C-15.6149 34.575 -8.94683 22.4752 -7.90076 20.1723C-6.87013 17.8427 3.12183 22.5196 6.21085 22.624C7.30065 22.6609 11.9942 21.9087 11.9942 21.9087C8.74074 19.3308 13.3063 20.4019 12.6852 20.25C12.6024 20.2297 12.5248 20.1879 12.4525 20.1245C11.9101 19.7405 11.3915 18.6313 11.3915 18.6313L12.4193 18.1973C12.4193 18.1973 9.66398 17.8889 8.81151 16.0811C7.95903 14.2733 9.11621 11.4264 11.69 11.7589C14.2639 12.0915 14.4174 16.2186 14.4174 16.2186C15.8266 15.0326 14.6702 14.0186 14.0512 12.1537C13.4528 10.2938 16.3287 12.7108 17.5694 13.3798C18.8101 14.0489 18.7646 13.7864 18.7646 13.7864C26.9443 14.2565 24.2108 27.1359 23.8609 29.0151C23.511 30.8943 22.8198 27.7095 22.8198 27.7095C22.3397 28.5059 21.579 27.0405 21.579 27.0405C21.1572 28.765 20.8163 27.288 20.8163 27.288L20.0106 27.8905C18.6697 27.6311 16.5874 25.0198 15.8963 24.2568C15.2105 23.4722 6.02064 24.1715 10.8708 25.3351C15.7273 26.7795 15.6443 28.0158 15.1267 27.8892C14.6091 27.7626 11.9405 40.6983 11.2761 43.4145C10.6117 46.1306 6.26823 55.0065 5.96908 57.1266C5.68536 59.2733 7.16144 59.4287 7.16144 59.4287C8.31732 58.1122 8.27949 59.7022 8.27949 59.7022C11.4573 61.7818 9.36433 64.1485 9.36433 64.1485C9.92441 61.5896 7.84828 61.196 7.84828 61.196C7.1182 62.2968 6.539 60.8072 6.539 60.8072L-9.20344 70.8016L-10.5285 70.4775L-2.64189 65.5069C-2.71145 64.8045 -3.45503 65.4222 -4.44165 64.7011C-5.44897 63.975 -8.90821 63.4943 -9.5516 63.7025C-10.195 63.9107 -10.4429 62.5021 -11.0697 62.463C-11.7172 62.4189 -12.1847 61.4592 -12.804 62.1073C-13.4234 62.7555 -14.9853 69.4102 -14.9853 69.4102L-16.9937 68.9189L-16.9134 68.3217L-23.2427 50.5981C-23.9705 51.1512 -24.839 48.2428 -24.839 48.2428C-26.9183 46.1578 -19.6463 39.4834 -17.6202 37.0317ZM-3.50399 62.3031C-2.13569 63.4374 -0.983922 61.8686 -0.791676 62.9666C-0.59943 64.0645 -0.543752 64.3752 -0.543752 64.3752L6.11629 60.2926C6.11629 60.2926 3.86514 59.6277 6.0801 54.1608C8.29506 48.694 13.4202 28.9972 13.3434 28.7728C13.2821 28.575 13.5321 28.2707 11.9171 27.8756C10.3021 27.4806 9.34404 27.3605 9.01712 28.697C8.6902 30.0335 7.90972 30.8022 7.188 31.1511C6.44559 31.495 4.1598 34.1116 3.98681 35.8056C3.8191 37.4781 4.27965 46.181 2.44656 47.1263C2.44656 47.1263 1.95709 47.692 2.40461 48.464C2.86757 49.2626 2.44081 54.5958 -2.02759 56.2672C-2.03286 56.2888 -4.8723 61.1688 -3.50399 62.3031ZM-11.517 59.1779C-11.4155 60.9162 -8.76067 60.469 -8.76067 60.469C-8.24049 61.2131 -7.4123 61.4157 -6.29836 61.4368C-5.20512 61.4529 -3.36129 55.5297 -4.16491 54.4193C-4.94782 53.3139 -4.21348 51.2089 -4.21348 51.2089C-5.55725 52.845 -8.17224 53.6676 -8.75352 53.8909C-9.3348 54.1143 -11.6184 57.4396 -11.517 59.1779ZM-23.1657 48.3095C-22.2562 48.8975 -21.405 48.5574 -21.405 48.5574L-21.8005 50.1741C-20.8933 51.3099 -21.4239 53.0307 -21.4239 53.0307L-16.4521 67.0637C-16.4521 67.0637 -15.0905 63.6499 -14.5674 62.4985C-14.0444 61.347 -14.1784 61.1771 -15.3322 60.7807C-16.4653 60.3893 -15.233 59.3885 -13.9869 58.7794C-12.7407 58.1704 -11.149 54.2645 -11.149 54.2645C-11.149 54.2645 -14.2187 54.7931 -17.4054 54.8132C-20.5922 54.8334 -21.8012 50.3567 -19.4336 46.7777C-17.0867 43.1937 -12.5752 42.3324 -10.3895 42.5472C-8.20903 42.7836 -8.27448 42.3335 -7.58078 40.0357C-6.89235 37.7595 -9.48251 38.8395 -12.568 39.4327C-15.6536 40.0259 -14.3246 39.4371 -13.2865 37.7947C-12.2277 36.1574 -5.76965 36.9375 -6.09885 35.1435C-6.42804 33.3495 -9.62146 32.4998 -9.75968 29.6559C-9.89789 26.8119 -7.55932 30.0798 -6.28259 32.0371C-5.00586 33.9943 -3.57569 33.9786 -3.57569 33.9786C-1.47987 33.3946 0.910561 34.2078 0.910561 34.2078C2.46114 31.4571 1.9037 27.2769 0.710564 25.1573C-0.482572 23.0377 -4.07349 21.8395 -5.43434 21.3924C-6.79519 20.9453 -7.50713 21.4337 -10.1701 27.4764C-12.8279 33.4975 -18.4879 40.0408 -21.5786 43.0774C-24.6641 46.0923 -24.0698 47.6999 -23.1657 48.3095Z" fill="#F8F9FA"/>
<path d="M22.333 22.5931L23.81 25.3826C23.845 25.4555 23.9435 25.5202 23.9558 24.7066C23.9666 23.9903 22.8875 22.9994 22.333 22.5931Z" fill="#8C5E2D"/>
</g>
<g clip-path="url(#clip1_462_115)">
<path d="M256.833 82.8039L243.815 78.2608C243.815 78.2608 238.077 71.1021 237.689 70.9232C236.076 70.1686 239.643 69.6518 239.773 69.1683C240.244 67.246 241.887 67.7803 241.887 67.7803C242.794 67.3072 242.524 65.7668 242.524 65.7668C243.502 64.9038 242.788 63.758 242.788 63.758C243.689 62.6722 242.694 61.6972 242.694 61.6972C244.229 60.4673 242.255 59.768 242.255 59.768C243.447 58.6695 241.77 57.9829 241.77 57.9829C242.943 57.1557 241.547 56.8856 241.547 56.8856C242.035 56.2141 240.851 56.056 240.851 56.056C241.64 55.1825 240.313 55.2171 240.313 55.2171C240.784 53.8821 239.634 54.2236 239.634 54.2236C239.999 53.1263 238.714 52.644 238.714 52.644L241.922 47.9641L240.13 45.2478C242.993 40.4594 238.544 39.4416 238.544 39.4416C238.737 36.6481 234.507 37.7695 234.507 37.7695L229.724 31.9955C229.724 31.9955 229.23 30.8797 228.263 31.7935C227.296 32.7074 220.362 34.4968 220.362 34.4968C221.313 30.8102 217.624 31.1413 217.624 31.1413C219.352 31.8163 219.32 32.7313 218.281 34.0352C215.146 37.9778 211.972 32.5857 211.972 32.5857C216.548 30.6381 218.592 18.1339 209.852 17.8509C201.106 17.5426 201.794 24.5672 201.519 25.3507C201.519 25.3507 200.931 24.7634 200.472 24.9745C200.013 25.1857 199.227 25.0172 199.227 25.0172C197.96 24.611 198.362 25.9079 198.362 25.9079C197.044 25.5132 197.36 26.6694 197.36 26.6694C196.297 26.4571 196.772 27.604 196.772 27.604C195.351 27.5797 195.835 28.8848 195.835 28.8848C194.603 28.8709 195.078 30.0178 195.078 30.0178C194.41 30.2497 194.801 29.974 194.795 32.2978C194.789 34.6217 193.425 36.9605 193.178 38.4582C192.957 39.9501 195.092 36.6617 195.092 36.6617C194.192 38.5747 197.255 37.1314 197.255 37.1314L197.183 38.1087L197.845 37.8514L199.033 38.7295C201.04 39.3411 201.889 36.025 204.837 36.0758C207.785 36.1267 208.566 37.808 210.416 37.8153C212.773 37.8247 205.492 39.077 204.712 39.5213C203.926 39.9401 205.736 44.7344 205.736 44.7344L204.742 45.7613L203.454 48.0828L204.646 49.3336L204.192 51.332L205.75 53.4875C206.764 55.9533 208.869 54.9945 208.869 54.9945L210.166 59.8788C210.166 59.8788 216.355 65.1463 217.665 65.8629C218.976 66.5795 218.667 67.4507 218.667 67.4507C217.155 69.0222 219.532 70.0838 219.532 70.0838C218.746 71.0899 220.411 71.4857 220.411 71.4857C220.09 72.8934 221.517 72.9431 221.517 72.9431C221.473 74.3946 222.638 74.2366 222.638 74.2366C223.73 75.1632 223.107 75.9454 223.898 76.7266C224.69 77.5078 224.098 78.3097 224.098 78.3097C225.129 80.8517 224.734 81.5821 224.209 81.034C223.704 80.4547 223.008 80.7997 223.008 80.7997C221.432 81.852 223.135 84.882 223.945 84.8047C224.755 84.7275 225.101 83.314 225.101 83.314C225.101 83.314 225.505 83.9163 227.014 83.0395C228.524 82.1626 230.434 81.9953 230.434 81.9953C235.304 81.6897 235.897 79.9532 235.897 79.9532C237.397 80.6802 237.752 79.4248 237.752 79.4248L241.021 86.2903L243.559 85.7135L239.716 78.5514L243.793 79.5739L247.706 84.9313L249.052 84.6256L245.226 79.8889L254.687 83.345L256.845 82.8547L256.833 82.8039ZM235.69 43.2134C236.72 42.9262 239.669 47.9155 239.669 47.9155L238.426 50.2001C237.352 49.937 237.05 46.9624 237.05 46.9624L236.567 47.072L235.69 43.2134ZM195.311 35.0371C195.311 35.0371 195.262 33.7667 198.044 33.3214C198.044 33.3214 197.443 34.5525 195.311 35.0371ZM207.816 26.7494C206.319 27.0897 204.823 26.1481 204.483 24.6504C204.142 23.1527 205.084 21.6573 206.582 21.317C208.079 20.9767 209.575 21.9183 209.915 23.416C210.256 24.9137 209.314 26.4091 207.816 26.7494ZM215.464 50.7728L214.367 50.4082C214.367 50.4082 215.27 52.1517 214.487 52.4632C213.735 52.7943 212.397 52.4308 212.915 53.8881C213.428 55.3201 213.239 58.4862 214.494 59.189C215.748 59.8917 215.984 59.7579 216.094 60.2402C216.204 60.7225 217.009 61.4471 217.009 61.4471C217.009 61.4471 216.491 62.339 217.069 62.7683C217.672 63.1918 217.258 63.9533 217.258 63.9533L212.057 59.1554C212.057 59.1554 210.261 53.9572 209.855 52.8749L209.553 51.6622C209.553 51.6622 212.606 48.8862 208.433 48.2595L206.748 40.8471C206.748 40.8471 209.483 39.9587 210.519 41.6988L210.813 42.9934C210.813 42.9934 210.383 43.3315 211.358 44.0976C212.041 44.6365 215.624 48.6543 215.624 48.6543C215.624 48.6543 215.995 50.1717 215.464 50.7728ZM228.76 33.9766L234.336 41.0119C234.336 41.0119 228.941 46.6425 226.708 47.1501C224.474 47.6577 222.746 46.048 219.412 46.6456C219.228 46.6606 216.419 37.822 228.76 33.9766ZM229.046 48.514C229.046 48.514 231.581 47.2172 232.667 45.7691L234.049 49.6196L233.13 50.3892C233.13 50.3892 232.492 48.6387 228.773 49.7775L228.372 49.3078L229.946 48.9502L229.046 48.514ZM235.632 77.6109L229.184 79.0761L229.321 77.6834L227.499 76.9494L227.904 75.4425L235.551 77.2555L235.632 77.6109ZM234.9 76.3889L228.18 74.6591C228.18 74.6591 228.506 73.6241 227.799 72.9837C227.799 72.9837 228.267 71.516 227.442 71.4098C227.334 71.4075 227.278 71.3937 227.196 71.3856C227.188 71.4675 227.174 71.524 227.174 71.524C227.174 71.524 226.736 71.3567 227.196 71.3856C227.248 71.0267 227.351 70.069 227.119 69.9883C226.805 69.8994 226.946 69.2267 226.946 69.2267C226.946 69.2267 227.259 69.9029 228.118 69.9214C228.118 69.9214 228.697 71.1779 229.734 70.8087C229.734 70.8087 230.666 71.8518 231.859 71.5807C233.052 71.3096 235.288 74.8058 235.288 74.8058C235.288 74.8058 234.385 75.6516 234.9 76.3889ZM231.543 56.3291C231.543 56.3291 230.745 55.8699 231.162 54.6537C231.58 53.4376 230.057 52.6091 231.09 51.8672C232.122 51.1253 232.706 52.7545 232.706 52.7545C232.706 52.7545 233.942 51.3792 234.736 52.6404C235.524 53.8762 236.792 53.9351 234.849 54.43C234.849 54.43 233.987 54.8661 233.878 55.2111C233.801 55.5757 233.801 55.5757 233.801 55.5757C233.801 55.5757 232.951 53.7134 231.543 56.3291ZM241.176 77.9261L240.867 77.0353L238.858 76.1837C238.858 76.1837 239.45 74.7945 237.884 73.8956C236.318 72.9967 236.093 72.0066 236.093 72.0066L237.058 71.7874L242.874 78.2342L241.176 77.9261Z" fill="#8C5E2D"/>
</g>
<defs>
<clipPath id="clip0_462_115">
<path d="M5.14365 15.0543C5.88654 12.0172 8.95083 10.1574 11.9879 10.9003L21.9638 13.3404C25.0009 14.0833 26.8607 17.1476 26.1178 20.1847L23.7192 29.9909L8.24418 26.2057C5.20708 25.4628 3.34725 22.3985 4.09013 19.3614L5.14365 15.0543Z" fill="white"/>
</clipPath>
<clipPath id="clip1_462_115">
<path d="M189.378 22.0527L216.794 15.8229L220.565 32.4199C220.935 34.0488 219.915 35.6693 218.286 36.0394L193.82 41.5991L189.378 22.0527Z" fill="white"/>
</clipPath>
</defs>
</svg>
